<?xml version="1.0" encoding="UTF-8"?>
<svg version="1.1" xmlns="http://www.w3.org/2000/svg" width="507" height="611">
<path d="M0 0 C77.22 0 154.44 0 234 0 C229.94884031 6.07673954 225.88918188 11.86118 221.375 17.5625 C216.84949722 23.32701464 212.37513367 29.12049911 208 35 C203.15816849 41.49978218 198.20186308 47.90329309 193.2109375 54.2890625 C189.41756004 59.15193845 185.68463345 64.05431553 182 69 C177.15775623 75.49948228 172.20187127 81.90328261 167.2109375 88.2890625 C163.41756004 93.15193845 159.68463345 98.05431553 156 103 C151.73650782 108.72265528 147.39446419 114.37731787 143 120 C138.01072492 126.38438368 133.10206158 132.82136179 128.25561523 139.31469727 C124.42238263 144.44806819 120.53203706 149.53404707 116.6171875 154.60546875 C113.62836731 158.47761051 110.65771025 162.36357482 107.6875 166.25 C107.139729 166.96663818 106.59195801 167.68327637 106.02758789 168.42163086 C104.90945193 169.88456214 103.79136957 171.3475344 102.67333984 172.81054688 C99.94966736 176.37428992 97.22478337 179.93710631 94.5 183.5 C93.41666062 184.91666204 92.33332729 186.33332872 91.25 187.75 C19.75 281.25 19.75 281.25 18.12426758 283.37573242 C17.04308552 284.78973589 15.96219266 286.20396053 14.8815918 287.6184082 C12.142696 291.20270846 9.39858247 294.78279679 6.64453125 298.35546875 C3.91671249 301.89689637 1.20340672 305.448893 -1.49511719 309.01269531 C-2.46442597 310.29273644 -3.43624028 311.57088607 -4.41113281 312.84667969 C-16.33319526 328.52086331 -27.55109112 347.56497111 -25 368 C-22.90886302 376.72338209 -17.82092334 383.56285366 -10.5 388.6875 C-1.07503243 394.11233599 10.50407676 396.59590585 21 399 C21 399.33 21 399.66 21 400 C-56.88 400 -134.76 400 -215 400 C-210.50690148 392.13707758 -210.50690148 392.13707758 -208.51171875 389.73828125 C-207.83520264 388.91203247 -207.83520264 388.91203247 -207.14501953 388.0690918 C-206.66403809 387.4894165 -206.18305664 386.90974121 -205.6875 386.3125 C-200.8504999 380.37741496 -196.19638833 374.3292668 -191.625 368.1875 C-185.04818983 359.36108348 -178.32771608 350.6570459 -171.54882812 341.98535156 C-163.28220051 331.38884845 -155.16012204 320.67856156 -147 310 C-140.20662638 301.11000325 -133.40749817 292.22476337 -126.58203125 283.359375 C-121.9315968 277.31362877 -117.30466756 271.24983784 -112.67333984 265.18945312 C-109.41066502 260.92046162 -106.14634813 256.65272566 -102.88232422 252.38476562 C-100.13583561 248.79339457 -97.38977402 245.20169849 -94.64453125 241.609375 C-88.96898284 234.1834238 -83.28379536 226.76522047 -77.58203125 219.359375 C-72.37155679 212.58555491 -67.18890501 205.79034472 -62 199 C-55.20662638 190.11000325 -48.40749817 181.22476337 -41.58203125 172.359375 C-36.37155679 165.58555491 -31.18890501 158.79034472 -26 152 C-19.20662638 143.11000325 -12.40749817 134.22476337 -5.58203125 125.359375 C-2.05541432 120.7746354 1.45696343 116.17899641 4.96826172 111.58251953 C7.75137189 107.93930858 10.53757483 104.29858031 13.33203125 100.6640625 C16.0497063 97.12883627 18.75133836 93.58173108 21.44775391 90.03027344 C22.94393573 88.07332973 24.46034647 86.13368283 25.98046875 84.1953125 C36.6025254 70.46325934 45.77814713 54.17248554 45 36.25 C43.90280257 28.16413197 40.22044635 21.2873794 34 16 C33.278125 15.34 32.55625 14.68 31.8125 14 C24.82247946 9.02931873 17.27319822 6.2662581 9.078125 3.89453125 C6.02269056 3.00659408 3.01234603 2.02365651 0 1 C0 0.67 0 0.34 0 0 Z " fill="#EF5A28" transform="translate(247,20)"/>
<path d="M0 0 C-1.2279406 3.16267765 -2.38221748 5.79285931 -4.4765625 8.46875 C-4.97414062 9.11134766 -5.47171875 9.75394531 -5.984375 10.41601562 C-6.79648437 11.44758789 -6.79648437 11.44758789 -7.625 12.5 C-8.80509991 14.02051334 -9.98476767 15.54136216 -11.1640625 17.0625 C-11.78829102 17.86429688 -12.41251953 18.66609375 -13.05566406 19.4921875 C-16.39992914 23.80563437 -19.69729158 28.15470773 -23 32.5 C-27.82629125 38.83873557 -32.65825034 45.17306494 -37.5 51.5 C-44.33066146 60.4266133 -51.14150811 69.36828219 -57.95166016 78.31054688 C-61.30047489 82.70751269 -64.65028027 87.10372362 -68 91.5 C-69.33333824 93.24999626 -70.66667157 94.99999627 -72 96.75 C-92 123 -92 123 -112 149.25 C-112.66112793 150.11786133 -113.32225586 150.98572266 -114.00341797 151.87988281 C-115.32484724 153.61399616 -116.64677996 155.34772598 -117.96923828 157.08105469 C-121.48912055 161.69595346 -124.99772759 166.31893819 -128.4921875 170.953125 C-129.22566406 171.92314453 -129.95914063 172.89316406 -130.71484375 173.89257812 C-132.12949944 175.76386319 -133.54107925 177.63747848 -134.94921875 179.51367188 C-135.58214844 180.34962891 -136.21507812 181.18558594 -136.8671875 182.046875 C-137.42519043 182.78776367 -137.98319336 183.52865234 -138.55810547 184.29199219 C-140 186 -140 186 -142 187 C-143.07398995 149.56700146 -143.12616377 112.15078026 -143.07202661 74.70663488 C-143.06058262 66.6429194 -143.05528492 58.57920277 -143.05032361 50.51548111 C-143.04004001 34.0103112 -143.02260525 17.50515776 -143 1 C-128.93242184 0.86785468 -114.86482858 0.73742846 -100.79721737 0.60884857 C-94.26153286 0.54906414 -87.72585386 0.48877749 -81.19018555 0.42724609 C-24.85953942 -0.10239907 -24.85953942 -0.10239907 0 0 Z " fill="#EF5A28" transform="translate(174,20)"/>
<path d="M0 0 C1.43223976 2.6818323 2.4064748 5.17106 3.11328125 8.125 C3.30647949 8.90794434 3.49967773 9.69088867 3.69873047 10.49755859 C4.00254639 11.73626709 4.00254639 11.73626709 4.3125 13 C8.56636815 29.64133343 15.48216102 45.07754651 27 58 C28.01513672 59.15628906 28.01513672 59.15628906 29.05078125 60.3359375 C41.52104584 73.69530688 58.36533106 80.70848894 76.1862793 83.0637207 C81.81768822 83.81768822 81.81768822 83.81768822 84 86 C83.030625 86.14695312 82.06125 86.29390625 81.0625 86.4453125 C57.34453645 90.30720985 35.90843625 100.51489307 21 120 C10.68515795 135.45330197 6.16111221 151.85149696 3 170 C1.04676371 166.30617611 0.11156243 162.61290156 -0.8125 158.5625 C-4.69722303 142.45087198 -11.27285705 127.73691212 -22 115 C-22.68642578 114.09701172 -22.68642578 114.09701172 -23.38671875 113.17578125 C-37.76795188 94.83867883 -62.11684566 88.84780776 -84 86 C-84 85.67 -84 85.34 -84 85 C-82.20369141 84.76216797 -82.20369141 84.76216797 -80.37109375 84.51953125 C-60.90841819 81.79483705 -43.05793472 76.24875587 -28 63 C-27.25105469 62.34515625 -26.50210938 61.6903125 -25.73046875 61.015625 C-8.66608062 45.08498668 -2.90688006 22.33707837 0 0 Z " fill="#EF5A28" transform="translate(393,335)"/>
<path d="M0 0 C5.61 -0.0825 11.22 -0.165 17 -0.25 C18.75441406 -0.28641602 20.50882812 -0.32283203 22.31640625 -0.36035156 C23.73175845 -0.3720513 25.14712428 -0.38224007 26.5625 -0.390625 C27.27728516 -0.41108887 27.99207031 -0.43155273 28.72851562 -0.45263672 C34.23035674 -0.45638457 38.39285548 0.97240514 43 4 C47.44348769 8.67135885 48.29362268 12.47370385 48.22265625 18.71875 C47.74687154 23.59345655 45.0009699 27.28451345 42 31 C42.63679688 31.69609375 43.27359375 32.3921875 43.9296875 33.109375 C46.25501735 36.35606196 46.67892494 38.32074307 47.125 42.25 C47.80744244 47.60595447 48.75388852 52.74853019 50 58 C45.38 58 40.76 58 36 58 C34.26813604 54.53627208 34.30015146 50.41772668 33.92578125 46.5859375 C33.33803928 41.08491848 33.33803928 41.08491848 30 37 C27.10503376 36.3789905 24.26597077 36.3042175 21.3125 36.25 C18.569375 36.1675 15.82625 36.085 13 36 C13 43.26 13 50.52 13 58 C8.71 58 4.42 58 0 58 C0 38.86 0 19.72 0 0 Z M13 11 C13 15.95 13 20.9 13 26 C15.58361518 26.05407567 18.16609255 26.093707 20.75 26.125 C21.47960937 26.14175781 22.20921875 26.15851562 22.9609375 26.17578125 C28.30434334 26.24714584 28.30434334 26.24714584 33 24 C34.55460305 20.89079391 34.72720693 17.36916972 34 14 C32.22446413 11.89949868 30.8171921 11.09847813 28.07739258 10.76831055 C25.79380404 10.70431806 23.53320979 10.73866486 21.25 10.8125 C20.45722656 10.82603516 19.66445313 10.83957031 18.84765625 10.85351562 C16.89814436 10.88874777 14.94898374 10.94255179 13 11 Z " fill="#FAAD17" transform="translate(338,527)"/>
<path d="M0 0 C4.68859782 2.64266422 8.02174974 6.10599947 10.4375 10.9375 C10.47772391 13.2704866 10.48070247 15.60456666 10.4375 17.9375 C6.1475 17.9375 1.8575 17.9375 -2.5625 17.9375 C-3.2225 16.2875 -3.8825 14.6375 -4.5625 12.9375 C-7.83296125 10.7571925 -9.6824299 10.24790561 -13.5625 9.9375 C-16.85877566 10.92549783 -16.85877566 10.92549783 -19.5625 12.9375 C-19.60313832 14.60367115 -19.605221 16.27138095 -19.5625 17.9375 C-15.65135571 19.48566128 -11.7647513 20.90048689 -7.71484375 22.0390625 C6.1252396 25.97740297 6.1252396 25.97740297 11.4375 31.9375 C13.42815952 37.90947856 13.45513073 44.60542958 10.9375 50.375 C4.47101423 57.00314792 -1.56230767 59.07199317 -10.6875 59.25 C-18.15735285 59.25814399 -24.79763716 58.40148241 -30.46875 53.18359375 C-35.13198403 47.91545908 -35.67454956 44.88457297 -35.5625 37.9375 C-31.2725 37.9375 -26.9825 37.9375 -22.5625 37.9375 C-22.129375 39.05125 -21.69625 40.165 -21.25 41.3125 C-19.86338881 45.11262334 -19.86338881 45.11262334 -16.5625 46.9375 C-13.69317837 47.29304057 -13.69317837 47.29304057 -10.5625 47.25 C-9.510625 47.26675781 -8.45875 47.28351562 -7.375 47.30078125 C-4.57066959 47.16200701 -4.57066959 47.16200701 -2.69921875 45.6171875 C-0.99771227 43.10293395 -1.3657988 40.88801806 -1.5625 37.9375 C-2.13355469 37.76734375 -2.70460938 37.5971875 -3.29296875 37.421875 C-5.02837692 36.90318385 -6.76264791 36.38068065 -8.49609375 35.85546875 C-10.62932727 35.21685744 -12.76784048 34.59572901 -14.91015625 33.98828125 C-29.41539685 29.77493352 -29.41539685 29.77493352 -33.5625 22.9375 C-34.37729905 17.25592822 -34.2925924 11.79591701 -32.1875 6.4375 C-23.39393935 -1.93731967 -11.57002624 -3.5309677 0 0 Z " fill="#FAAE16" transform="translate(472.5625,527.0625)"/>
<path d="M0 0 C14.19 0 28.38 0 43 0 C43 3.96 43 7.92 43 12 C33.1 12 23.2 12 13 12 C13 15.63 13 19.26 13 23 C22.24 23 31.48 23 41 23 C41 26.3 41 29.6 41 33 C31.76 33 22.52 33 13 33 C13 37.29 13 41.58 13 46 C23.23 46 33.46 46 44 46 C44 49.96 44 53.92 44 58 C29.48 58 14.96 58 0 58 C0 38.86 0 19.72 0 0 Z " fill="#FAAD17" transform="translate(392,527)"/>
<path d="M0 0 C4.29 0 8.58 0 13 0 C13.01458252 1.15000488 13.02916504 2.30000977 13.04418945 3.48486328 C13.10233762 7.76788805 13.17956924 12.05039616 13.26245117 16.33300781 C13.29562296 18.18350819 13.32367887 20.03410786 13.34643555 21.88476562 C13.3801245 24.55121003 13.4324466 27.2167509 13.48828125 29.8828125 C13.49467117 30.70492218 13.5010611 31.52703186 13.50764465 32.37405396 C13.63235337 37.29051494 14.29145081 40.73621402 17 45 C20.8223223 47.58568862 24.51756961 47.02468156 28.9140625 46.58203125 C31.44933079 45.87462493 32.41577611 45.08829513 34 43 C34.83018026 40.28885577 35.14107095 37.79287827 35.20532227 34.96582031 C35.22526749 34.18531311 35.24521271 33.40480591 35.26576233 32.60064697 C35.28247482 31.76821472 35.29918732 30.93578247 35.31640625 30.078125 C35.33718735 29.21813904 35.35796844 28.35815308 35.37937927 27.47210693 C35.44463739 24.73148402 35.50364917 21.99076725 35.5625 19.25 C35.60570781 17.3893133 35.64932282 15.52863602 35.69335938 13.66796875 C35.80029442 9.11207477 35.90162851 4.5560866 36 0 C40.29 0 44.58 0 49 0 C49.07440677 5.99565954 49.12872362 11.99104758 49.16479492 17.98706055 C49.17983947 20.02486862 49.20028012 22.06264454 49.22631836 24.1003418 C49.26289247 27.03702756 49.27976999 29.97328351 49.29296875 32.91015625 C49.30845261 33.81459976 49.32393646 34.71904327 49.33988953 35.65089417 C49.34168568 42.47079084 47.87692573 46.77168774 44.4375 52.6875 C38.73224507 58.10017775 32.1950335 59.27436201 24.5 59.5 C17.36067925 59.28365695 10.94913887 58.33150103 5.3515625 53.609375 C-0.20171862 47.51039573 -0.28343458 40.77295813 -0.1953125 33.0078125 C-0.1924826 32.06187225 -0.18965271 31.11593201 -0.18673706 30.1413269 C-0.17558932 27.13575306 -0.15049465 24.13048298 -0.125 21.125 C-0.11496321 19.08073349 -0.10583859 17.03646228 -0.09765625 14.9921875 C-0.07566767 9.99467556 -0.04117509 4.9973892 0 0 Z " fill="#FAAE16" transform="translate(282,527)"/>
<path d="M0 0 C4.29 0 8.58 0 13 0 C13.01981934 1.1552417 13.03963867 2.3104834 13.06005859 3.50073242 C13.13626941 7.79668561 13.22496289 12.09230692 13.31738281 16.38793945 C13.35560866 18.24529456 13.39047263 20.10272208 13.421875 21.96020508 C13.46766461 24.63388912 13.52563579 27.30707742 13.5859375 29.98046875 C13.59748871 30.80773972 13.60903992 31.63501068 13.62094116 32.48735046 C13.72839885 36.70801936 13.91030709 40.21687321 16 44 C20.37955173 47.20455004 23.79256466 47.20499263 28.94921875 46.6171875 C31.43705446 45.86846742 32.42988107 45.05870579 34 43 C34.83060325 40.28899739 35.14107205 37.79282962 35.20532227 34.96582031 C35.22526749 34.18531311 35.24521271 33.40480591 35.26576233 32.60064697 C35.28247482 31.76821472 35.29918732 30.93578247 35.31640625 30.078125 C35.33718735 29.21813904 35.35796844 28.35815308 35.37937927 27.47210693 C35.44463739 24.73148402 35.50364917 21.99076725 35.5625 19.25 C35.60570781 17.3893133 35.64932282 15.52863602 35.69335938 13.66796875 C35.80029442 9.11207477 35.90162851 4.5560866 36 0 C40.29 0 44.58 0 49 0 C49.07440677 5.99565954 49.12872362 11.99104758 49.16479492 17.98706055 C49.17983947 20.02486862 49.20028012 22.06264454 49.22631836 24.1003418 C49.26289247 27.03702756 49.27976999 29.97328351 49.29296875 32.91015625 C49.30845261 33.81459976 49.32393646 34.71904327 49.33988953 35.65089417 C49.34168568 42.47079084 47.87692573 46.77168774 44.4375 52.6875 C38.73224507 58.10017775 32.1950335 59.27436201 24.5 59.5 C17.38171513 59.2842944 10.88848696 58.36326479 5.3515625 53.57421875 C-0.1144479 47.46050191 -0.28106472 41.66762381 -0.1953125 33.88671875 C-0.19106766 32.43239189 -0.19106766 32.43239189 -0.18673706 30.94868469 C-0.17556991 27.86149595 -0.15047152 24.77460061 -0.125 21.6875 C-0.11496573 19.59049899 -0.10584066 17.49349342 -0.09765625 15.39648438 C-0.07564188 10.2642104 -0.04113571 5.1321549 0 0 Z " fill="#FAAE16" transform="translate(181,527)"/>
<path d="M0 0 C4.00400116 3.54552775 6.58825044 7.70600355 7.25390625 13.03125 C7.56161212 18.82803149 6.70782249 23.4351808 3 28 C-0.81186996 31.284935 -4.8737584 34.1274251 -9 37 C-11.64 38.98 -14.28 40.96 -17 43 C-9.08 43.33 -1.16 43.66 7 44 C7 47.63 7 51.26 7 55 C-6.86 55 -20.72 55 -35 55 C-33.80595573 44.25360161 -31.49518261 39.57504326 -23.390625 32.78515625 C-19.62957359 29.97665871 -15.65003588 27.52044427 -11.63671875 25.08984375 C-8.55610444 22.64817167 -7.35170941 20.67166458 -6 17 C-6.54362131 13.21912772 -6.54362131 13.21912772 -8 10 C-10.79870027 8.60064987 -12.90498792 8.74734595 -16 9 C-18.79271553 11.15300483 -19.67646846 13.36553921 -20.6875 16.6875 C-21.3371875 18.8221875 -21.3371875 18.8221875 -22 21 C-25.63 21 -29.26 21 -33 21 C-33.42039075 14.27374798 -32.95990852 9.58042493 -29 4 C-21.42076463 -4.1814212 -9.6465612 -5.75785836 0 0 Z " fill="#FAAD16" transform="translate(108,530)"/>
<path d="M0 0 C13.53 0 27.06 0 41 0 C41 3.96 41 7.92 41 12 C32.09 12 23.18 12 14 12 C14 15.96 14 19.92 14 24 C21.59 24 29.18 24 37 24 C37 27.3 37 30.6 37 34 C29.41 34 21.82 34 14 34 C14 41.92 14 49.84 14 58 C9.38 58 4.76 58 0 58 C0 38.86 0 19.72 0 0 Z " fill="#FAAD17" transform="translate(137,527)"/>
<path d="M0 0 C15.84 0 31.68 0 48 0 C48 3.96 48 7.92 48 12 C42.39 12 36.78 12 31 12 C31 27.18 31 42.36 31 58 C26.38 58 21.76 58 17 58 C17 42.82 17 27.64 17 12 C11.39 12 5.78 12 0 12 C0 8.04 0 4.08 0 0 Z " fill="#FAAE17" transform="translate(232,527)"/>
<path d="M0 0 C12.87 0 25.74 0 39 0 C39 11 39 11 36.4375 14.3125 C35.89222656 14.85519531 35.34695312 15.39789062 34.78515625 15.95703125 C25.39410239 26.70434235 21.84831316 43.21491114 21 57 C16.71 57 12.42 57 8 57 C6.58904913 41.19735027 15.12920985 25.41910621 24 13 C16.08 12.67 8.16 12.34 0 12 C0 8.04 0 4.08 0 0 Z " fill="#FAAD17" transform="translate(34,528)"/>
</svg>
